# xmcd
#
# Track frame offsets:
# 150
# 13497
# 29884
# 42969
# 55404
# 69652
# 83836
# 95118
# 108551
# 120869
# 132885
# 151139
# 162349
# 174429
# 187433
# 199913
# 211713
# 230228
# 243609
# 257554
#
# Disc length: 3630 seconds
#
#
# Revision: 0
# Processed by: cddbd v1.5.2PL0 Copyright (c) Steve Scherf et al.
# Submitted via: FreeRIP 2.91 
#
DISCID=2a0e2c14
DTITLE=Tonny Aabo - Ta' til Grønland igen
DYEAR=2012
DGENRE=Country
TTITLE0=Langturstrucker i Thule
TTITLE1=Jeg vil sende en kærlig tanke
TTITLE2=Ta' til Grønland igen
TTITLE3=Min FB asasara
TTITLE4=På Kirkebakken 12
TTITLE5=Julianehaab er dejlig
TTITLE6=Du skal en tur ned til Bodil
TTITLE7=Asavakit ja jeg gør
TTITLE8=Ajungi Jungilaq
TTITLE9=På chartertur i Sønder Strømfjord
TTITLE10=På Mutten igen
TTITLE11=Skidegodt i Godthaab
TTITLE12=Byens bedste butler
TTITLE13=En super charmetrold
TTITLE14=I can't get it up
TTITLE15=A ska' saftsuseme æt op å flyv (Jeg skal saftsuseme ikke op og flyve)
TTITLE16=8726 Henderson Road
TTITLE17=Stegt flæsk med persillesovs
TTITLE18=He's a V.I.P.
TTITLE19=Call me crazy
EXTD=
EXTT0=
EXTT1=
EXTT2=
EXTT3=
EXTT4=
EXTT5=
EXTT6=
EXTT7=
EXTT8=
EXTT9=
EXTT10=
EXTT11=
EXTT12=
EXTT13=
EXTT14=
EXTT15=
EXTT16=
EXTT17=
EXTT18=
EXTT19=
PLAYORDER=
